<svg id="Layer_1" data-name="Layer 1" xmlns="http://www.w3.org/2000/svg" xmlns:xlink="http://www.w3.org/1999/xlink" viewBox="0 0 433.55 321.67"><defs><style>.cls-1{fill:none;}.cls-2{fill:#32266f;}.cls-3{fill:#443c75;}.cls-4{clip-path:url(#clip-path);}.cls-5{fill:#110e38;}.cls-6{fill:#1e1c4b;}.cls-7{fill:#342e79;}.cls-8{fill:#353281;}.cls-9{fill:#fa9654;}.cls-10{fill:#f47d2a;}.cls-11{fill:#c75000;}.cls-12{fill:#b54500;}</style><clipPath id="clip-path"><rect class="cls-1" x="-611.38" y="-186.02" width="594.37" height="398.42" transform="translate(-628.38 26.38) rotate(-180)"/></clipPath></defs><title>Poly_cettugether_orange</title><polygon class="cls-2" points="141.22 251.26 141.22 249.94 140.27 249.83 141.22 251.26"/><polygon class="cls-3" points="141.22 250.25 141.22 249.94 140.27 249.83 141.22 250.25"/><g class="cls-4"><polygon class="cls-5" points="6 262.43 -200.24 264.55 -138.83 74.45 -15.77 7.17 6 262.43"/><polygon class="cls-6" points="-200.24 264.55 -23.6 357.85 11.74 178.35 -200.24 264.55"/><polygon class="cls-7" points="-23.6 357.85 11.74 178.35 162.67 305.89 -23.6 357.85"/><polygon class="cls-8" points="-138.83 74.45 11.74 178.35 30.85 -18.32 -138.83 74.45"/><polygon class="cls-6" points="-39.27 199.1 11.74 178.35 -138.83 74.45 -39.27 199.1"/><polygon class="cls-6" points="-138.83 74.45 -111.73 105.22 30.85 -18.32 -138.83 74.45"/><polygon class="cls-5" points="-23.6 357.85 -9.69 287.19 12.2 314.38 162.67 305.89 -23.6 357.85"/><polygon class="cls-6" points="12.2 314.38 11.74 178.35 -23.6 357.85 12.2 314.38"/><polygon class="cls-5" points="-82.86 80.6 -42.85 124.59 11.74 178.35 -138.83 74.45 -82.86 80.6"/></g><polygon class="cls-9" points="0 172.43 83.32 321.67 4.75 281.06 0 172.43"/><polygon class="cls-10" points="0 172.43 80.68 139.21 184.03 304.26 0 172.43"/><polygon class="cls-9" points="80.68 139.21 136.58 75.41 45.35 36.91 80.68 139.21"/><polygon class="cls-10" points="197.75 0 207.24 109.16 136.58 75.41 197.75 0"/><polygon class="cls-11" points="159.78 184.03 136.58 75.41 207.24 109.16 159.78 184.03"/><polygon class="cls-10" points="159.78 184.03 136.58 75.41 80.68 139.21 159.78 184.03"/><polygon class="cls-9" points="184.03 304.26 159.78 184.03 80.68 139.21 184.03 304.26"/><polygon class="cls-12" points="207.24 109.16 184.03 304.26 159.78 184.03 207.24 109.16"/><polygon class="cls-12" points="184.03 304.26 0 172.43 65.46 289.69 184.03 304.26"/><polygon class="cls-10" points="433.55 172.43 350.23 321.67 428.8 281.06 433.55 172.43"/><polygon class="cls-9" points="433.55 172.43 352.87 139.21 249.51 304.26 433.55 172.43"/><polygon class="cls-10" points="352.87 139.21 296.97 75.41 388.2 36.91 352.87 139.21"/><polygon class="cls-9" points="235.8 0 226.31 109.16 296.97 75.41 235.8 0"/><polygon class="cls-10" points="273.77 184.03 296.97 75.41 226.31 109.16 273.77 184.03"/><polygon class="cls-11" points="273.77 184.03 296.97 75.41 352.87 139.21 273.77 184.03"/><polygon class="cls-12" points="249.51 304.26 273.77 184.03 352.87 139.21 249.51 304.26"/><polygon class="cls-9" points="226.31 109.16 249.51 304.26 273.77 184.03 226.31 109.16"/><polygon class="cls-12" points="249.51 304.26 433.55 172.43 368.08 289.69 249.51 304.26"/></svg>