<?xml version="1.0" encoding="utf-8"?>
<!-- Generator: Adobe Illustrator 22.0.1, SVG Export Plug-In . SVG Version: 6.00 Build 0)  -->
<svg version="1.1" id="Layer_1" xmlns="http://www.w3.org/2000/svg" xmlns:xlink="http://www.w3.org/1999/xlink" x="0px" y="0px"
	 viewBox="0 0 521.575 144.567" enable-background="new 0 0 521.575 144.567" xml:space="preserve">
<g>
	<path fill="#FF8300" d="M89.532,136.904v-18.335c0-2.27-1.135-3.786-3.593-3.786h-0.566c-7.184,0.571-17.581,1.516-27.977,1.516
		c-13.045,0-23.443-6.805-23.443-31.943v-23.82c0-25.143,10.398-31.948,23.443-31.948c10.396,0,20.793,0.944,27.977,1.512h0.566
		c2.458,0,3.593-1.512,3.593-3.781V7.985c0-2.647-1.516-3.404-4.159-4.161c-3.971-1.321-14.936-3.213-28.168-3.213
		c-28.731,0-55.95,14.935-55.95,59.926v23.82c0,44.985,27.22,60.108,55.95,60.108c13.233,0,24.197-1.889,28.168-3.215
		C88.016,140.495,89.532,139.551,89.532,136.904"/>
	<path fill="#FF8300" d="M221.068,83.222V60.729c0-43.859-27.434-60.682-58.62-60.682c-31.193,0-58.628,16.822-58.628,60.682v22.493
		c0,43.855,27.435,60.679,58.628,60.679C193.634,143.9,221.068,127.077,221.068,83.222 M188.558,83.222
		c0,22.686-10.233,32.324-26.11,32.324c-15.88,0-25.922-9.638-25.922-32.324V60.729c0-22.684,10.042-32.327,25.922-32.327
		c15.877,0,26.11,9.643,26.11,32.327V83.222z"/>
	<path fill="#FF8300" d="M351.412,84.73V60.348c0-39.885-22.691-59.737-60.305-59.737c-15.69,0-32.512,1.512-40.264,2.836
		c-3.59,0.569-5.486,2.265-5.486,6.619v124.949c0,4.344,1.896,6.048,5.486,6.616c7.753,1.32,24.575,2.832,40.264,2.832
		C328.721,144.464,351.412,124.617,351.412,84.73 M319.085,84.73c0,25.518-10.964,32.327-27.978,32.327
		c-4.725,0-10.772-0.19-13.421-0.383V28.398c2.648-0.186,8.696-0.377,13.421-0.377c17.014,0,27.978,6.807,27.978,32.327V84.73z"/>
	<path fill="#FF8300" d="M461.529,138.039v-17.581c0-2.078-1.705-3.78-3.778-3.78h-38.378c-8.886,0-12.096-3.027-12.096-12.851
		v-20.04h48.959c2.081,0,3.776-1.703,3.776-3.783V62.05c0-2.082-1.695-3.786-3.776-3.786h-48.959V41.067
		c0-9.832,3.21-12.857,12.096-12.857h38.378c2.073,0,3.778-1.702,3.778-3.781V6.85c0-2.458-1.136-3.402-3.778-3.78
		c-6.622-0.943-16.072-2.459-36.488-2.459c-24.386,0-46.122,6.05-46.122,40.456v62.76c0,34.399,21.552,40.637,45.932,40.637
		c20.421,0,30.057-1.512,36.679-2.454C460.393,141.626,461.529,140.494,461.529,138.039"/>
	<path fill="#FF8300" d="M520.32,4.354l-3.767,92.67c0,1.005-0.376,1.915-1.13,2.73c-0.751,0.818-1.632,1.223-2.635,1.223h-16.905
		c-1.007,0-1.948-0.405-2.825-1.223c-0.88-0.815-1.318-1.725-1.318-2.73l-3.767-92.67V4.166c0-1.003,0.439-1.85,1.319-2.542
		c0.877-0.689,1.817-1.036,2.824-1.036h24.436c1.005,0,1.883,0.347,2.637,1.036c0.753,0.691,1.13,1.539,1.13,2.542V4.354z"/>
	<path fill="#FF8300" d="M518.795,143.39c-0.693,0.753-1.539,1.13-2.542,1.13h-24.001c-1.007,0-1.883-0.376-2.637-1.13
		c-0.752-0.753-1.129-1.63-1.129-2.636v-23.223c0-1.003,0.378-1.85,1.129-2.542c0.754-0.688,1.63-1.035,2.637-1.035h24.001
		c2.382,0,3.577,1.194,3.577,3.577v23.223C519.83,141.76,519.484,142.637,518.795,143.39"/>
</g>
</svg>
