<svg id="Layer_1" data-name="Layer 1" xmlns="http://www.w3.org/2000/svg" xmlns:xlink="http://www.w3.org/1999/xlink" viewBox="0 0 178.03 212.4"><defs><style>.cls-1{fill:none;}.cls-2{clip-path:url(#clip-path);}.cls-3{fill:#110e38;}.cls-4{fill:#1e1c4b;}.cls-5{fill:#342e79;}.cls-6{fill:#353281;}</style><clipPath id="clip-path"><rect class="cls-1" x="-416.34" y="-186.02" width="594.37" height="398.42" transform="translate(-238.31 26.38) rotate(-180)"/></clipPath></defs><title>Poly_violet_down_right</title><g class="cls-2"><polygon class="cls-3" points="201.04 262.43 -5.2 264.55 56.21 74.45 179.27 7.17 201.04 262.43"/><polygon class="cls-3" points="-5.2 264.55 56.21 74.45 155.77 199.1 -5.2 264.55"/><polygon class="cls-4" points="-5.2 264.55 171.44 357.85 206.78 178.35 -5.2 264.55"/><polygon class="cls-5" points="171.44 357.85 206.78 178.35 357.71 305.89 171.44 357.85"/><polygon class="cls-6" points="56.21 74.45 206.78 178.35 225.88 -18.32 56.21 74.45"/><polygon class="cls-4" points="155.77 199.1 206.78 178.35 56.21 74.45 155.77 199.1"/><polygon class="cls-6" points="89.71 130.84 56.21 74.45 -5.2 264.55 89.71 130.84"/><polygon class="cls-4" points="56.21 74.45 83.31 105.22 225.88 -18.32 56.21 74.45"/><polygon class="cls-4" points="207.24 314.38 206.78 178.35 171.44 357.85 207.24 314.38"/><polygon class="cls-3" points="112.18 80.6 152.19 124.59 206.78 178.35 56.21 74.45 112.18 80.6"/></g></svg>